<svg width="389" height="655" viewBox="0 0 389 655" fill="none" xmlns="http://www.w3.org/2000/svg">
<path d="M290 415C281.333 445.333 265.333 468.5 242 484.5C218.667 500.167 191.167 508 159.5 508C116.5 508 83 492.833 59 462.5C35.3333 432.167 23.5 386.333 23.5 325C23.5 302 25.5 278.667 29.5 255C33.5 231.333 40.5 210 50.5 191C60.5 171.667 73.8333 155.833 90.5 143.5C107.5 131.167 128.833 125 154.5 125C167.167 125 179.167 126.667 190.5 130C201.833 133.333 211.667 138.333 220 145C228.667 151.333 235.5 159.333 240.5 169C245.5 178.667 248 190 248 203C248 213.667 246 222.167 242 228.5C238 234.833 231.167 238 221.5 238C216.833 238 212.333 237.333 208 236C204 234.333 200.667 232 198 229C201 226.667 203.667 221.833 206 214.5C208.667 207.167 210 198.833 210 189.5C210 173.5 206.167 161.833 198.5 154.5C190.833 146.833 180.667 143 168 143C153 143 140 148 129 158C118.333 167.667 109.5 180.667 102.5 197C95.5 213.333 90.3333 231.833 87 252.5C84 273.167 82.5 294.5 82.5 316.5C82.5 343.833 84.8333 367.167 89.5 386.5C94.1667 405.833 101 421.667 110 434C119 446.333 130 455.5 143 461.5C156.333 467.167 171.5 470 188.5 470C210.167 470 228.167 465.333 242.5 456C256.833 446.333 268.5 431 277.5 410L290 415Z" fill="black"/>
<path d="M389 562C380.333 592.333 364.333 615.5 341 631.5C317.667 647.167 290.167 655 258.5 655C215.5 655 182 639.833 158 609.5C134.333 579.167 122.5 533.333 122.5 472C122.5 449 124.5 425.667 128.5 402C132.5 378.333 139.5 357 149.5 338C159.5 318.667 172.833 302.833 189.5 290.5C206.5 278.167 227.833 272 253.5 272C266.167 272 278.167 273.667 289.5 277C300.833 280.333 310.667 285.333 319 292C327.667 298.333 334.5 306.333 339.5 316C344.5 325.667 347 337 347 350C347 360.667 345 369.167 341 375.5C337 381.833 330.167 385 320.5 385C315.833 385 311.333 384.333 307 383C303 381.333 299.667 379 297 376C300 373.667 302.667 368.833 305 361.5C307.667 354.167 309 345.833 309 336.5C309 320.5 305.167 308.833 297.5 301.5C289.833 293.833 279.667 290 267 290C252 290 239 295 228 305C217.333 314.667 208.5 327.667 201.5 344C194.5 360.333 189.333 378.833 186 399.5C183 420.167 181.5 441.5 181.5 463.5C181.5 490.833 183.833 514.167 188.5 533.5C193.167 552.833 200 568.667 209 581C218 593.333 229 602.5 242 608.5C255.333 614.167 270.5 617 287.5 617C309.167 617 327.167 612.333 341.5 603C355.833 593.333 367.5 578 376.5 557L389 562Z" fill="black"/>
</svg>
